<?xml version="1.0" standalone="no"?>
<!DOCTYPE svg PUBLIC "-//W3C//DTD SVG 20010904//EN"
 "http://www.w3.org/TR/2001/REC-SVG-20010904/DTD/svg10.dtd">
<svg version="1.0" xmlns="http://www.w3.org/2000/svg"
 width="16.000000pt" height="16.000000pt" viewBox="0 0 16.000000 16.000000"
 preserveAspectRatio="xMidYMid meet">

<g transform="translate(0.000000,16.000000) scale(0.100000,-0.100000)"
fill="#000000" stroke="none">
<path d="M75 85 c-9 -26 -15 -48 -13 -51 3 -2 13 16 23 41 9 26 15 48 13 51
-3 2 -13 -16 -23 -41z"/>
<path d="M10 95 c-10 -12 -10 -18 0 -30 7 -8 17 -15 22 -15 6 0 5 7 -2 15 -10
12 -10 18 0 30 7 8 8 15 2 15 -5 0 -15 -7 -22 -15z"/>
<path d="M130 95 c10 -12 10 -18 0 -30 -7 -8 -8 -15 -2 -15 5 0 15 7 22 15 10
12 10 18 0 30 -7 8 -17 15 -22 15 -6 0 -5 -7 2 -15z"/>
</g>
</svg>
